<?xml version="1.0" encoding="UTF-8" standalone="no"?>
<!DOCTYPE svg PUBLIC "-//W3C//DTD SVG 1.1//EN"
 "http://www.w3.org/Graphics/SVG/1.1/DTD/svg11.dtd">
<!-- Generated by graphviz version 2.47.0 (20210316.0004)
 -->
<!-- Title: dependencies Pages: 1 -->
<svg width="504pt" height="211pt"
 viewBox="0.00 0.00 504.00 211.00" xmlns="http://www.w3.org/2000/svg" xmlns:xlink="http://www.w3.org/1999/xlink">
<g id="graph0" class="graph" transform="scale(1 1) rotate(0) translate(4 207)">
<title>dependencies</title>
<polygon fill="white" stroke="transparent" points="-4,4 -4,-207 500,-207 500,4 -4,4"/>
<text text-anchor="start" x="227.01" y="-42.4" font-family="Times-12" font-weight="bold" font-size="14.00">Legend</text>
<polygon fill="#ffffb3" stroke="transparent" points="14,-10 14,-30 34,-30 34,-10 14,-10"/>
<text text-anchor="start" x="37.63" y="-15.4" font-family="Times-12" font-size="14.00"> &#160;Declarations</text>
<polygon fill="#8dd3c7" stroke="transparent" points="127,-10 127,-30 147,-30 147,-10 127,-10"/>
<text text-anchor="start" x="150.73" y="-15.4" font-family="Times-12" font-size="14.00"> &#160;Module</text>
<polygon fill="#80b1d3" stroke="transparent" points="213,-10 213,-30 233,-30 233,-10 213,-10"/>
<text text-anchor="start" x="236.78" y="-15.4" font-family="Times-12" font-size="14.00"> &#160;Bootstrap</text>
<polygon fill="#fdb462" stroke="transparent" points="310,-10 310,-30 330,-30 330,-10 310,-10"/>
<text text-anchor="start" x="333.67" y="-15.4" font-family="Times-12" font-size="14.00"> &#160;Providers</text>
<polygon fill="#fb8072" stroke="transparent" points="406,-10 406,-30 426,-30 426,-10 406,-10"/>
<text text-anchor="start" x="429.73" y="-15.4" font-family="Times-12" font-size="14.00"> &#160;Exports</text>
<g id="clust1" class="cluster">
<title>cluster_CustomerModule</title>
<polygon fill="none" stroke="black" stroke-dasharray="1,5" points="43.5,-70 43.5,-195 452.5,-195 452.5,-70 43.5,-70"/>
</g>
<g id="clust6" class="cluster">
<title>cluster_CustomerModule_providers</title>
<polygon fill="none" stroke="black" points="51.5,-78 51.5,-130 444.5,-130 444.5,-78 51.5,-78"/>
</g>
<!-- CustomerService -->
<g id="node1" class="node">
<title>CustomerService</title>
<ellipse fill="#fdb462" stroke="black" cx="358.5" cy="-104" rx="77.58" ry="18"/>
<text text-anchor="middle" x="358.5" y="-99.8" font-family="Times,serif" font-size="14.00">CustomerService</text>
</g>
<!-- CustomerModule -->
<g id="node3" class="node">
<title>CustomerModule</title>
<polygon fill="#8dd3c7" stroke="black" points="316.49,-187 313.49,-191 292.49,-191 289.49,-187 202.51,-187 202.51,-151 316.49,-151 316.49,-187"/>
<text text-anchor="middle" x="259.5" y="-164.8" font-family="Times,serif" font-size="14.00">CustomerModule</text>
</g>
<!-- CustomerService&#45;&gt;CustomerModule -->
<g id="edge1" class="edge">
<title>CustomerService&#45;&gt;CustomerModule</title>
<path fill="none" stroke="black" d="M298.73,-115.62C298.73,-115.62 298.73,-140.85 298.73,-140.85"/>
<polygon fill="black" stroke="black" points="295.23,-140.85 298.73,-150.85 302.23,-140.85 295.23,-140.85"/>
</g>
<!-- ServiceAccountService -->
<g id="node2" class="node">
<title>ServiceAccountService</title>
<ellipse fill="#fdb462" stroke="black" cx="161.5" cy="-104" rx="101.82" ry="18"/>
<text text-anchor="middle" x="161.5" y="-99.8" font-family="Times,serif" font-size="14.00">ServiceAccountService</text>
</g>
<!-- ServiceAccountService&#45;&gt;CustomerModule -->
<g id="edge2" class="edge">
<title>ServiceAccountService&#45;&gt;CustomerModule</title>
<path fill="none" stroke="black" d="M232.83,-116.84C232.83,-116.84 232.83,-140.52 232.83,-140.52"/>
<polygon fill="black" stroke="black" points="229.33,-140.52 232.83,-150.52 236.33,-140.52 229.33,-140.52"/>
</g>
</g>
</svg>
