<?xml version="1.0" encoding="UTF-8" standalone="no"?>
<!DOCTYPE svg PUBLIC "-//W3C//DTD SVG 1.1//EN"
 "http://www.w3.org/Graphics/SVG/1.1/DTD/svg11.dtd">
<!-- Generated by graphviz version 2.47.0 (20210316.0004)
 -->
<!-- Title: dependencies Pages: 1 -->
<svg width="808pt" height="284pt"
 viewBox="0.00 0.00 808.00 284.00" xmlns="http://www.w3.org/2000/svg" xmlns:xlink="http://www.w3.org/1999/xlink">
<g id="graph0" class="graph" transform="scale(1 1) rotate(0) translate(4 280)">
<title>dependencies</title>
<polygon fill="white" stroke="transparent" points="-4,4 -4,-280 804,-280 804,4 -4,4"/>
<text text-anchor="start" x="379.01" y="-42.4" font-family="Times-12" font-weight="bold" font-size="14.00">Legend</text>
<polygon fill="#ffffb3" stroke="transparent" points="166,-10 166,-30 186,-30 186,-10 166,-10"/>
<text text-anchor="start" x="189.63" y="-15.4" font-family="Times-12" font-size="14.00"> &#160;Declarations</text>
<polygon fill="#8dd3c7" stroke="transparent" points="279,-10 279,-30 299,-30 299,-10 279,-10"/>
<text text-anchor="start" x="302.73" y="-15.4" font-family="Times-12" font-size="14.00"> &#160;Module</text>
<polygon fill="#80b1d3" stroke="transparent" points="365,-10 365,-30 385,-30 385,-10 365,-10"/>
<text text-anchor="start" x="388.78" y="-15.4" font-family="Times-12" font-size="14.00"> &#160;Bootstrap</text>
<polygon fill="#fdb462" stroke="transparent" points="462,-10 462,-30 482,-30 482,-10 462,-10"/>
<text text-anchor="start" x="485.67" y="-15.4" font-family="Times-12" font-size="14.00"> &#160;Providers</text>
<polygon fill="#fb8072" stroke="transparent" points="558,-10 558,-30 578,-30 578,-10 558,-10"/>
<text text-anchor="start" x="581.73" y="-15.4" font-family="Times-12" font-size="14.00"> &#160;Exports</text>
<g id="clust1" class="cluster">
<title>cluster_AuthModule</title>
<polygon fill="none" stroke="black" stroke-dasharray="1,5" points="8,-70 8,-268 792,-268 792,-70 8,-70"/>
</g>
<g id="clust4" class="cluster">
<title>cluster_AuthModule_exports</title>
<polygon fill="none" stroke="black" points="241,-208 241,-260 566,-260 566,-208 241,-208"/>
</g>
<g id="clust6" class="cluster">
<title>cluster_AuthModule_providers</title>
<polygon fill="none" stroke="black" points="16,-78 16,-130 784,-130 784,-78 16,-78"/>
</g>
<!-- AuthService  -->
<g id="node1" class="node">
<title>AuthService </title>
<polygon fill="#fb8072" stroke="black" points="557.98,-252 468.02,-252 468.02,-216 557.98,-216 557.98,-252"/>
<text text-anchor="middle" x="513" y="-229.8" font-family="Times,serif" font-size="14.00">AuthService </text>
</g>
<!-- JwtStrategy  -->
<g id="node2" class="node">
<title>JwtStrategy </title>
<polygon fill="#fb8072" stroke="black" points="449.6,-252 364.4,-252 364.4,-216 449.6,-216 449.6,-252"/>
<text text-anchor="middle" x="407" y="-229.8" font-family="Times,serif" font-size="14.00">JwtStrategy </text>
</g>
<!-- TokenService  -->
<g id="node3" class="node">
<title>TokenService </title>
<polygon fill="#fb8072" stroke="black" points="346.75,-252 249.25,-252 249.25,-216 346.75,-216 346.75,-252"/>
<text text-anchor="middle" x="298" y="-229.8" font-family="Times,serif" font-size="14.00">TokenService </text>
</g>
<!-- AuthModule -->
<g id="node4" class="node">
<title>AuthModule</title>
<polygon fill="#8dd3c7" stroke="black" points="450.55,-187 447.55,-191 426.55,-191 423.55,-187 363.45,-187 363.45,-151 450.55,-151 450.55,-187"/>
<text text-anchor="middle" x="407" y="-164.8" font-family="Times,serif" font-size="14.00">AuthModule</text>
</g>
<!-- AuthModule&#45;&gt;AuthService  -->
<g id="edge1" class="edge">
<title>AuthModule&#45;&gt;AuthService </title>
<path fill="none" stroke="black" stroke-dasharray="5,2" d="M450.59,-178C469.96,-178 488.46,-178 488.46,-178 488.46,-178 488.46,-205.97 488.46,-205.97"/>
<polygon fill="black" stroke="black" points="484.96,-205.97 488.46,-215.97 491.96,-205.97 484.96,-205.97"/>
</g>
<!-- AuthModule&#45;&gt;JwtStrategy  -->
<g id="edge2" class="edge">
<title>AuthModule&#45;&gt;JwtStrategy </title>
<path fill="none" stroke="black" stroke-dasharray="5,2" d="M407,-187.11C407,-187.11 407,-205.99 407,-205.99"/>
<polygon fill="black" stroke="black" points="403.5,-205.99 407,-215.99 410.5,-205.99 403.5,-205.99"/>
</g>
<!-- AuthModule&#45;&gt;TokenService  -->
<g id="edge3" class="edge">
<title>AuthModule&#45;&gt;TokenService </title>
<path fill="none" stroke="black" stroke-dasharray="5,2" d="M363.17,-178C344.08,-178 325.98,-178 325.98,-178 325.98,-178 325.98,-205.97 325.98,-205.97"/>
<polygon fill="black" stroke="black" points="322.48,-205.97 325.98,-215.97 329.48,-205.97 322.48,-205.97"/>
</g>
<!-- AuthService -->
<g id="node5" class="node">
<title>AuthService</title>
<ellipse fill="#fdb462" stroke="black" cx="717" cy="-104" rx="59.11" ry="18"/>
<text text-anchor="middle" x="717" y="-99.8" font-family="Times,serif" font-size="14.00">AuthService</text>
</g>
<!-- AuthService&#45;&gt;AuthModule -->
<g id="edge4" class="edge">
<title>AuthService&#45;&gt;AuthModule</title>
<path fill="none" stroke="black" d="M717,-122.11C717,-141.34 717,-169 717,-169 717,-169 460.76,-169 460.76,-169"/>
<polygon fill="black" stroke="black" points="460.76,-165.5 450.76,-169 460.76,-172.5 460.76,-165.5"/>
</g>
<!-- JwtStrategy -->
<g id="node6" class="node">
<title>JwtStrategy</title>
<ellipse fill="#fdb462" stroke="black" cx="583" cy="-104" rx="56.76" ry="18"/>
<text text-anchor="middle" x="583" y="-99.8" font-family="Times,serif" font-size="14.00">JwtStrategy</text>
</g>
<!-- JwtStrategy&#45;&gt;AuthModule -->
<g id="edge5" class="edge">
<title>JwtStrategy&#45;&gt;AuthModule</title>
<path fill="none" stroke="black" d="M542.05,-116.71C542.05,-133.23 542.05,-160 542.05,-160 542.05,-160 460.85,-160 460.85,-160"/>
<polygon fill="black" stroke="black" points="460.85,-156.5 450.85,-160 460.85,-163.5 460.85,-156.5"/>
</g>
<!-- ServiceAccountService -->
<g id="node7" class="node">
<title>ServiceAccountService</title>
<ellipse fill="#fdb462" stroke="black" cx="407" cy="-104" rx="101.82" ry="18"/>
<text text-anchor="middle" x="407" y="-99.8" font-family="Times,serif" font-size="14.00">ServiceAccountService</text>
</g>
<!-- ServiceAccountService&#45;&gt;AuthModule -->
<g id="edge6" class="edge">
<title>ServiceAccountService&#45;&gt;AuthModule</title>
<path fill="none" stroke="black" d="M407,-122.11C407,-122.11 407,-140.99 407,-140.99"/>
<polygon fill="black" stroke="black" points="403.5,-140.99 407,-150.99 410.5,-140.99 403.5,-140.99"/>
</g>
<!-- TokenService -->
<g id="node8" class="node">
<title>TokenService</title>
<ellipse fill="#fdb462" stroke="black" cx="223" cy="-104" rx="64.83" ry="18"/>
<text text-anchor="middle" x="223" y="-99.8" font-family="Times,serif" font-size="14.00">TokenService</text>
</g>
<!-- TokenService&#45;&gt;AuthModule -->
<g id="edge7" class="edge">
<title>TokenService&#45;&gt;AuthModule</title>
<path fill="none" stroke="black" d="M268.52,-116.99C268.52,-133.53 268.52,-160 268.52,-160 268.52,-160 353.18,-160 353.18,-160"/>
<polygon fill="black" stroke="black" points="353.18,-163.5 363.18,-160 353.18,-156.5 353.18,-163.5"/>
</g>
<!-- UserService -->
<g id="node9" class="node">
<title>UserService</title>
<ellipse fill="#fdb462" stroke="black" cx="82" cy="-104" rx="58.44" ry="18"/>
<text text-anchor="middle" x="82" y="-99.8" font-family="Times,serif" font-size="14.00">UserService</text>
</g>
<!-- UserService&#45;&gt;AuthModule -->
<g id="edge8" class="edge">
<title>UserService&#45;&gt;AuthModule</title>
<path fill="none" stroke="black" d="M82,-122.11C82,-141.34 82,-169 82,-169 82,-169 353.17,-169 353.17,-169"/>
<polygon fill="black" stroke="black" points="353.17,-172.5 363.17,-169 353.17,-165.5 353.17,-172.5"/>
</g>
</g>
</svg>
