<?xml version="1.0" encoding="UTF-8" standalone="no"?>
<!DOCTYPE svg PUBLIC "-//W3C//DTD SVG 1.1//EN"
 "http://www.w3.org/Graphics/SVG/1.1/DTD/svg11.dtd">
<!-- Generated by graphviz version 2.47.0 (20210316.0004)
 -->
<!-- Title: dependencies Pages: 1 -->
<svg width="1397pt" height="284pt"
 viewBox="0.00 0.00 1397.00 284.00" xmlns="http://www.w3.org/2000/svg" xmlns:xlink="http://www.w3.org/1999/xlink">
<g id="graph0" class="graph" transform="scale(1 1) rotate(0) translate(4 280)">
<title>dependencies</title>
<polygon fill="white" stroke="transparent" points="-4,4 -4,-280 1393,-280 1393,4 -4,4"/>
<text text-anchor="start" x="673.51" y="-42.4" font-family="Times-12" font-weight="bold" font-size="14.00">Legend</text>
<polygon fill="#ffffb3" stroke="transparent" points="460.5,-10 460.5,-30 480.5,-30 480.5,-10 460.5,-10"/>
<text text-anchor="start" x="484.13" y="-15.4" font-family="Times-12" font-size="14.00"> &#160;Declarations</text>
<polygon fill="#8dd3c7" stroke="transparent" points="573.5,-10 573.5,-30 593.5,-30 593.5,-10 573.5,-10"/>
<text text-anchor="start" x="597.23" y="-15.4" font-family="Times-12" font-size="14.00"> &#160;Module</text>
<polygon fill="#80b1d3" stroke="transparent" points="659.5,-10 659.5,-30 679.5,-30 679.5,-10 659.5,-10"/>
<text text-anchor="start" x="683.28" y="-15.4" font-family="Times-12" font-size="14.00"> &#160;Bootstrap</text>
<polygon fill="#fdb462" stroke="transparent" points="756.5,-10 756.5,-30 776.5,-30 776.5,-10 756.5,-10"/>
<text text-anchor="start" x="780.17" y="-15.4" font-family="Times-12" font-size="14.00"> &#160;Providers</text>
<polygon fill="#fb8072" stroke="transparent" points="852.5,-10 852.5,-30 872.5,-30 872.5,-10 852.5,-10"/>
<text text-anchor="start" x="876.23" y="-15.4" font-family="Times-12" font-size="14.00"> &#160;Exports</text>
<g id="clust1" class="cluster">
<title>cluster_EInvoiceModule</title>
<polygon fill="none" stroke="black" stroke-dasharray="1,5" points="8,-70 8,-268 1381,-268 1381,-70 8,-70"/>
</g>
<g id="clust4" class="cluster">
<title>cluster_EInvoiceModule_exports</title>
<polygon fill="none" stroke="black" points="343,-208 343,-260 1197,-260 1197,-208 343,-208"/>
</g>
<g id="clust3" class="cluster">
<title>cluster_EInvoiceModule_imports</title>
<polygon fill="none" stroke="black" points="1133,-78 1133,-130 1373,-130 1373,-78 1133,-78"/>
</g>
<g id="clust6" class="cluster">
<title>cluster_EInvoiceModule_providers</title>
<polygon fill="none" stroke="black" points="16,-78 16,-130 1125,-130 1125,-78 16,-78"/>
</g>
<!-- CommonModule -->
<g id="node1" class="node">
<title>CommonModule</title>
<polygon fill="#8dd3c7" stroke="black" points="1364.67,-122 1361.67,-126 1340.67,-126 1337.67,-122 1253.33,-122 1253.33,-86 1364.67,-86 1364.67,-122"/>
<text text-anchor="middle" x="1309" y="-99.8" font-family="Times,serif" font-size="14.00">CommonModule</text>
</g>
<!-- EInvoiceModule -->
<g id="node3" class="node">
<title>EInvoiceModule</title>
<polygon fill="#8dd3c7" stroke="black" points="826.08,-187 823.08,-191 802.08,-191 799.08,-187 715.92,-187 715.92,-151 826.08,-151 826.08,-187"/>
<text text-anchor="middle" x="771" y="-164.8" font-family="Times,serif" font-size="14.00">EInvoiceModule</text>
</g>
<!-- CommonModule&#45;&gt;EInvoiceModule -->
<g id="edge1" class="edge">
<title>CommonModule&#45;&gt;EInvoiceModule</title>
<path fill="none" stroke="black" d="M1309,-122.11C1309,-141.34 1309,-169 1309,-169 1309,-169 836.05,-169 836.05,-169"/>
<polygon fill="black" stroke="black" points="836.05,-165.5 826.05,-169 836.05,-172.5 836.05,-165.5"/>
</g>
<!-- MinioModule -->
<g id="node2" class="node">
<title>MinioModule</title>
<polygon fill="#8dd3c7" stroke="black" points="1234.78,-122 1231.78,-126 1210.78,-126 1207.78,-122 1141.22,-122 1141.22,-86 1234.78,-86 1234.78,-122"/>
<text text-anchor="middle" x="1188" y="-99.8" font-family="Times,serif" font-size="14.00">MinioModule</text>
</g>
<!-- MinioModule&#45;&gt;EInvoiceModule -->
<g id="edge2" class="edge">
<title>MinioModule&#45;&gt;EInvoiceModule</title>
<path fill="none" stroke="black" d="M1165.28,-122.02C1165.28,-139.37 1165.28,-163 1165.28,-163 1165.28,-163 836.24,-163 836.24,-163"/>
<polygon fill="black" stroke="black" points="836.24,-159.5 826.24,-163 836.24,-166.5 836.24,-159.5"/>
</g>
<!-- AttestationService  -->
<g id="node4" class="node">
<title>AttestationService </title>
<polygon fill="#fb8072" stroke="black" points="1189.41,-252 1066.59,-252 1066.59,-216 1189.41,-216 1189.41,-252"/>
<text text-anchor="middle" x="1128" y="-229.8" font-family="Times,serif" font-size="14.00">AttestationService </text>
</g>
<!-- EInvoiceModule&#45;&gt;AttestationService  -->
<g id="edge3" class="edge">
<title>EInvoiceModule&#45;&gt;AttestationService </title>
<path fill="none" stroke="black" stroke-dasharray="5,2" d="M826.17,-175C917.94,-175 1091.96,-175 1091.96,-175 1091.96,-175 1091.96,-205.98 1091.96,-205.98"/>
<polygon fill="black" stroke="black" points="1088.46,-205.98 1091.96,-215.98 1095.46,-205.98 1088.46,-205.98"/>
</g>
<!-- EKYBService  -->
<g id="node5" class="node">
<title>EKYBService </title>
<polygon fill="#fb8072" stroke="black" points="1048.58,-252 949.42,-252 949.42,-216 1048.58,-216 1048.58,-252"/>
<text text-anchor="middle" x="999" y="-229.8" font-family="Times,serif" font-size="14.00">EKYBService </text>
</g>
<!-- EInvoiceModule&#45;&gt;EKYBService  -->
<g id="edge4" class="edge">
<title>EInvoiceModule&#45;&gt;EKYBService </title>
<path fill="none" stroke="black" stroke-dasharray="5,2" d="M826.15,-181C898.6,-181 1016.74,-181 1016.74,-181 1016.74,-181 1016.74,-205.76 1016.74,-205.76"/>
<polygon fill="black" stroke="black" points="1013.24,-205.76 1016.74,-215.76 1020.24,-205.76 1013.24,-205.76"/>
</g>
<!-- InvoiceProcessorService  -->
<g id="node6" class="node">
<title>InvoiceProcessorService </title>
<polygon fill="#fb8072" stroke="black" points="930.88,-252 773.12,-252 773.12,-216 930.88,-216 930.88,-252"/>
<text text-anchor="middle" x="852" y="-229.8" font-family="Times,serif" font-size="14.00">InvoiceProcessorService </text>
</g>
<!-- EInvoiceModule&#45;&gt;InvoiceProcessorService  -->
<g id="edge5" class="edge">
<title>EInvoiceModule&#45;&gt;InvoiceProcessorService </title>
<path fill="none" stroke="black" stroke-dasharray="5,2" d="M799.55,-187.11C799.55,-187.11 799.55,-205.99 799.55,-205.99"/>
<polygon fill="black" stroke="black" points="796.05,-205.99 799.55,-215.99 803.05,-205.99 796.05,-205.99"/>
</g>
<!-- NotificationService  -->
<g id="node7" class="node">
<title>NotificationService </title>
<polygon fill="#fb8072" stroke="black" points="754.63,-252 625.37,-252 625.37,-216 754.63,-216 754.63,-252"/>
<text text-anchor="middle" x="690" y="-229.8" font-family="Times,serif" font-size="14.00">NotificationService </text>
</g>
<!-- EInvoiceModule&#45;&gt;NotificationService  -->
<g id="edge6" class="edge">
<title>EInvoiceModule&#45;&gt;NotificationService </title>
<path fill="none" stroke="black" stroke-dasharray="5,2" d="M735.26,-187.11C735.26,-187.11 735.26,-205.99 735.26,-205.99"/>
<polygon fill="black" stroke="black" points="731.76,-205.99 735.26,-215.99 738.76,-205.99 731.76,-205.99"/>
</g>
<!-- ServiceAccountService  -->
<g id="node8" class="node">
<title>ServiceAccountService </title>
<polygon fill="#fb8072" stroke="black" points="607.38,-252 456.62,-252 456.62,-216 607.38,-216 607.38,-252"/>
<text text-anchor="middle" x="532" y="-229.8" font-family="Times,serif" font-size="14.00">ServiceAccountService </text>
</g>
<!-- EInvoiceModule&#45;&gt;ServiceAccountService  -->
<g id="edge7" class="edge">
<title>EInvoiceModule&#45;&gt;ServiceAccountService </title>
<path fill="none" stroke="black" stroke-dasharray="5,2" d="M715.89,-181C662.32,-181 588.98,-181 588.98,-181 588.98,-181 588.98,-205.76 588.98,-205.76"/>
<polygon fill="black" stroke="black" points="585.48,-205.76 588.98,-215.76 592.48,-205.76 585.48,-205.76"/>
</g>
<!-- UserService  -->
<g id="node9" class="node">
<title>UserService </title>
<polygon fill="#fb8072" stroke="black" points="438.9,-252 351.1,-252 351.1,-216 438.9,-216 438.9,-252"/>
<text text-anchor="middle" x="395" y="-229.8" font-family="Times,serif" font-size="14.00">UserService </text>
</g>
<!-- EInvoiceModule&#45;&gt;UserService  -->
<g id="edge8" class="edge">
<title>EInvoiceModule&#45;&gt;UserService </title>
<path fill="none" stroke="black" stroke-dasharray="5,2" d="M715.65,-175C614.28,-175 409.15,-175 409.15,-175 409.15,-175 409.15,-205.98 409.15,-205.98"/>
<polygon fill="black" stroke="black" points="405.65,-205.98 409.15,-215.98 412.65,-205.98 405.65,-205.98"/>
</g>
<!-- AttestationService -->
<g id="node10" class="node">
<title>AttestationService</title>
<ellipse fill="#fdb462" stroke="black" cx="1035" cy="-104" rx="82.24" ry="18"/>
<text text-anchor="middle" x="1035" y="-99.8" font-family="Times,serif" font-size="14.00">AttestationService</text>
</g>
<!-- AttestationService&#45;&gt;EInvoiceModule -->
<g id="edge9" class="edge">
<title>AttestationService&#45;&gt;EInvoiceModule</title>
<path fill="none" stroke="black" d="M984.68,-118.48C984.68,-134.17 984.68,-157 984.68,-157 984.68,-157 836.31,-157 836.31,-157"/>
<polygon fill="black" stroke="black" points="836.31,-153.5 826.31,-157 836.31,-160.5 836.31,-153.5"/>
</g>
<!-- EKYBService -->
<g id="node11" class="node">
<title>EKYBService</title>
<ellipse fill="#fdb462" stroke="black" cx="868" cy="-104" rx="66.05" ry="18"/>
<text text-anchor="middle" x="868" y="-99.8" font-family="Times,serif" font-size="14.00">EKYBService</text>
</g>
<!-- EKYBService&#45;&gt;EInvoiceModule -->
<g id="edge10" class="edge">
<title>EKYBService&#45;&gt;EInvoiceModule</title>
<path fill="none" stroke="black" d="M813.88,-114.44C813.88,-114.44 813.88,-140.97 813.88,-140.97"/>
<polygon fill="black" stroke="black" points="810.38,-140.97 813.88,-150.97 817.38,-140.97 810.38,-140.97"/>
</g>
<!-- InvoiceProcessorService -->
<g id="node12" class="node">
<title>InvoiceProcessorService</title>
<ellipse fill="#fdb462" stroke="black" cx="677" cy="-104" rx="106.48" ry="18"/>
<text text-anchor="middle" x="677" y="-99.8" font-family="Times,serif" font-size="14.00">InvoiceProcessorService</text>
</g>
<!-- InvoiceProcessorService&#45;&gt;EInvoiceModule -->
<g id="edge11" class="edge">
<title>InvoiceProcessorService&#45;&gt;EInvoiceModule</title>
<path fill="none" stroke="black" d="M749.72,-117.15C749.72,-117.15 749.72,-140.69 749.72,-140.69"/>
<polygon fill="black" stroke="black" points="746.22,-140.69 749.72,-150.69 753.22,-140.69 746.22,-140.69"/>
</g>
<!-- NotificationService -->
<g id="node13" class="node">
<title>NotificationService</title>
<ellipse fill="#fdb462" stroke="black" cx="466" cy="-104" rx="86.81" ry="18"/>
<text text-anchor="middle" x="466" y="-99.8" font-family="Times,serif" font-size="14.00">NotificationService</text>
</g>
<!-- NotificationService&#45;&gt;EInvoiceModule -->
<g id="edge12" class="edge">
<title>NotificationService&#45;&gt;EInvoiceModule</title>
<path fill="none" stroke="black" d="M504.61,-120.19C504.61,-135.78 504.61,-157 504.61,-157 504.61,-157 705.8,-157 705.8,-157"/>
<polygon fill="black" stroke="black" points="705.8,-160.5 715.8,-157 705.8,-153.5 705.8,-160.5"/>
</g>
<!-- ServiceAccountService -->
<g id="node14" class="node">
<title>ServiceAccountService</title>
<ellipse fill="#fdb462" stroke="black" cx="260" cy="-104" rx="101.82" ry="18"/>
<text text-anchor="middle" x="260" y="-99.8" font-family="Times,serif" font-size="14.00">ServiceAccountService</text>
</g>
<!-- ServiceAccountService&#45;&gt;EInvoiceModule -->
<g id="edge13" class="edge">
<title>ServiceAccountService&#45;&gt;EInvoiceModule</title>
<path fill="none" stroke="black" d="M356.35,-109.87C356.35,-124.8 356.35,-163 356.35,-163 356.35,-163 705.94,-163 705.94,-163"/>
<polygon fill="black" stroke="black" points="705.94,-166.5 715.94,-163 705.94,-159.5 705.94,-166.5"/>
</g>
<!-- UserService -->
<g id="node15" class="node">
<title>UserService</title>
<ellipse fill="#fdb462" stroke="black" cx="82" cy="-104" rx="58.44" ry="18"/>
<text text-anchor="middle" x="82" y="-99.8" font-family="Times,serif" font-size="14.00">UserService</text>
</g>
<!-- UserService&#45;&gt;EInvoiceModule -->
<g id="edge14" class="edge">
<title>UserService&#45;&gt;EInvoiceModule</title>
<path fill="none" stroke="black" d="M82,-122.11C82,-141.34 82,-169 82,-169 82,-169 705.78,-169 705.78,-169"/>
<polygon fill="black" stroke="black" points="705.78,-172.5 715.78,-169 705.78,-165.5 705.78,-172.5"/>
</g>
</g>
</svg>
