<?xml version="1.0" encoding="UTF-8" standalone="no"?>
<!DOCTYPE svg PUBLIC "-//W3C//DTD SVG 1.1//EN"
 "http://www.w3.org/Graphics/SVG/1.1/DTD/svg11.dtd">
<!-- Generated by graphviz version 2.47.0 (20210316.0004)
 -->
<!-- Title: dependencies Pages: 1 -->
<svg width="1052pt" height="211pt"
 viewBox="0.00 0.00 1052.00 211.00" xmlns="http://www.w3.org/2000/svg" xmlns:xlink="http://www.w3.org/1999/xlink">
<g id="graph0" class="graph" transform="scale(1 1) rotate(0) translate(4 207)">
<title>dependencies</title>
<polygon fill="white" stroke="transparent" points="-4,4 -4,-207 1048,-207 1048,4 -4,4"/>
<text text-anchor="start" x="501.01" y="-42.4" font-family="Times-12" font-weight="bold" font-size="14.00">Legend</text>
<polygon fill="#ffffb3" stroke="transparent" points="288,-10 288,-30 308,-30 308,-10 288,-10"/>
<text text-anchor="start" x="311.63" y="-15.4" font-family="Times-12" font-size="14.00"> &#160;Declarations</text>
<polygon fill="#8dd3c7" stroke="transparent" points="401,-10 401,-30 421,-30 421,-10 401,-10"/>
<text text-anchor="start" x="424.73" y="-15.4" font-family="Times-12" font-size="14.00"> &#160;Module</text>
<polygon fill="#80b1d3" stroke="transparent" points="487,-10 487,-30 507,-30 507,-10 487,-10"/>
<text text-anchor="start" x="510.78" y="-15.4" font-family="Times-12" font-size="14.00"> &#160;Bootstrap</text>
<polygon fill="#fdb462" stroke="transparent" points="584,-10 584,-30 604,-30 604,-10 584,-10"/>
<text text-anchor="start" x="607.67" y="-15.4" font-family="Times-12" font-size="14.00"> &#160;Providers</text>
<polygon fill="#fb8072" stroke="transparent" points="680,-10 680,-30 700,-30 700,-10 680,-10"/>
<text text-anchor="start" x="703.73" y="-15.4" font-family="Times-12" font-size="14.00"> &#160;Exports</text>
<g id="clust1" class="cluster">
<title>cluster_AppModule</title>
<polygon fill="none" stroke="black" stroke-dasharray="1,5" points="8,-70 8,-195 1036,-195 1036,-70 8,-70"/>
</g>
<g id="clust3" class="cluster">
<title>cluster_AppModule_imports</title>
<polygon fill="none" stroke="black" points="16,-78 16,-130 1028,-130 1028,-78 16,-78"/>
</g>
<!-- AuthModule -->
<g id="node1" class="node">
<title>AuthModule</title>
<polygon fill="#8dd3c7" stroke="black" points="1019.55,-122 1016.55,-126 995.55,-126 992.55,-122 932.45,-122 932.45,-86 1019.55,-86 1019.55,-122"/>
<text text-anchor="middle" x="976" y="-99.8" font-family="Times,serif" font-size="14.00">AuthModule</text>
</g>
<!-- AppModule -->
<g id="node9" class="node">
<title>AppModule</title>
<polygon fill="#8dd3c7" stroke="black" points="574.66,-187 571.66,-191 550.66,-191 547.66,-187 491.34,-187 491.34,-151 574.66,-151 574.66,-187"/>
<text text-anchor="middle" x="533" y="-164.8" font-family="Times,serif" font-size="14.00">AppModule</text>
</g>
<!-- AuthModule&#45;&gt;AppModule -->
<g id="edge1" class="edge">
<title>AuthModule&#45;&gt;AppModule</title>
<path fill="none" stroke="black" d="M976,-122.29C976,-144.21 976,-178 976,-178 976,-178 584.68,-178 584.68,-178"/>
<polygon fill="black" stroke="black" points="584.68,-174.5 574.68,-178 584.68,-181.5 584.68,-174.5"/>
</g>
<!-- CommonModule -->
<g id="node2" class="node">
<title>CommonModule</title>
<polygon fill="#8dd3c7" stroke="black" points="913.67,-122 910.67,-126 889.67,-126 886.67,-122 802.33,-122 802.33,-86 913.67,-86 913.67,-122"/>
<text text-anchor="middle" x="858" y="-99.8" font-family="Times,serif" font-size="14.00">CommonModule</text>
</g>
<!-- CommonModule&#45;&gt;AppModule -->
<g id="edge2" class="edge">
<title>CommonModule&#45;&gt;AppModule</title>
<path fill="none" stroke="black" d="M858,-122.11C858,-141.34 858,-169 858,-169 858,-169 584.82,-169 584.82,-169"/>
<polygon fill="black" stroke="black" points="584.82,-165.5 574.82,-169 584.82,-172.5 584.82,-165.5"/>
</g>
<!-- CustomerModule -->
<g id="node3" class="node">
<title>CustomerModule</title>
<polygon fill="#8dd3c7" stroke="black" points="783.99,-122 780.99,-126 759.99,-126 756.99,-122 670.01,-122 670.01,-86 783.99,-86 783.99,-122"/>
<text text-anchor="middle" x="727" y="-99.8" font-family="Times,serif" font-size="14.00">CustomerModule</text>
</g>
<!-- CustomerModule&#45;&gt;AppModule -->
<g id="edge3" class="edge">
<title>CustomerModule&#45;&gt;AppModule</title>
<path fill="none" stroke="black" d="M727,-122.03C727,-138.4 727,-160 727,-160 727,-160 585.1,-160 585.1,-160"/>
<polygon fill="black" stroke="black" points="585.1,-156.5 575.1,-160 585.1,-163.5 585.1,-156.5"/>
</g>
<!-- DatabaseModule -->
<g id="node4" class="node">
<title>DatabaseModule</title>
<polygon fill="#8dd3c7" stroke="black" points="652.35,-122 649.35,-126 628.35,-126 625.35,-122 541.65,-122 541.65,-86 652.35,-86 652.35,-122"/>
<text text-anchor="middle" x="597" y="-99.8" font-family="Times,serif" font-size="14.00">DatabaseModule</text>
</g>
<!-- DatabaseModule&#45;&gt;AppModule -->
<g id="edge4" class="edge">
<title>DatabaseModule&#45;&gt;AppModule</title>
<path fill="none" stroke="black" d="M558.2,-122.11C558.2,-122.11 558.2,-140.99 558.2,-140.99"/>
<polygon fill="black" stroke="black" points="554.7,-140.99 558.2,-150.99 561.7,-140.99 554.7,-140.99"/>
</g>
<!-- EInvoiceModule -->
<g id="node5" class="node">
<title>EInvoiceModule</title>
<polygon fill="#8dd3c7" stroke="black" points="524.08,-122 521.08,-126 500.08,-126 497.08,-122 413.92,-122 413.92,-86 524.08,-86 524.08,-122"/>
<text text-anchor="middle" x="469" y="-99.8" font-family="Times,serif" font-size="14.00">EInvoiceModule</text>
</g>
<!-- EInvoiceModule&#45;&gt;AppModule -->
<g id="edge5" class="edge">
<title>EInvoiceModule&#45;&gt;AppModule</title>
<path fill="none" stroke="black" d="M507.61,-122.11C507.61,-122.11 507.61,-140.99 507.61,-140.99"/>
<polygon fill="black" stroke="black" points="504.11,-140.99 507.61,-150.99 511.11,-140.99 504.11,-140.99"/>
</g>
<!-- ExchangeRateModule -->
<g id="node6" class="node">
<title>ExchangeRateModule</title>
<polygon fill="#8dd3c7" stroke="black" points="396.4,-122 393.4,-126 372.4,-126 369.4,-122 255.6,-122 255.6,-86 396.4,-86 396.4,-122"/>
<text text-anchor="middle" x="326" y="-99.8" font-family="Times,serif" font-size="14.00">ExchangeRateModule</text>
</g>
<!-- ExchangeRateModule&#45;&gt;AppModule -->
<g id="edge6" class="edge">
<title>ExchangeRateModule&#45;&gt;AppModule</title>
<path fill="none" stroke="black" d="M326,-122.03C326,-138.4 326,-160 326,-160 326,-160 481.11,-160 481.11,-160"/>
<polygon fill="black" stroke="black" points="481.11,-163.5 491.11,-160 481.11,-156.5 481.11,-163.5"/>
</g>
<!-- InvoiceModule -->
<g id="node7" class="node">
<title>InvoiceModule</title>
<polygon fill="#8dd3c7" stroke="black" points="237.53,-122 234.53,-126 213.53,-126 210.53,-122 136.47,-122 136.47,-86 237.53,-86 237.53,-122"/>
<text text-anchor="middle" x="187" y="-99.8" font-family="Times,serif" font-size="14.00">InvoiceModule</text>
</g>
<!-- InvoiceModule&#45;&gt;AppModule -->
<g id="edge7" class="edge">
<title>InvoiceModule&#45;&gt;AppModule</title>
<path fill="none" stroke="black" d="M187,-122.11C187,-141.34 187,-169 187,-169 187,-169 481.26,-169 481.26,-169"/>
<polygon fill="black" stroke="black" points="481.26,-172.5 491.26,-169 481.26,-165.5 481.26,-172.5"/>
</g>
<!-- MinioModule -->
<g id="node8" class="node">
<title>MinioModule</title>
<polygon fill="#8dd3c7" stroke="black" points="117.78,-122 114.78,-126 93.78,-126 90.78,-122 24.22,-122 24.22,-86 117.78,-86 117.78,-122"/>
<text text-anchor="middle" x="71" y="-99.8" font-family="Times,serif" font-size="14.00">MinioModule</text>
</g>
<!-- MinioModule&#45;&gt;AppModule -->
<g id="edge8" class="edge">
<title>MinioModule&#45;&gt;AppModule</title>
<path fill="none" stroke="black" d="M71,-122.29C71,-144.21 71,-178 71,-178 71,-178 481.19,-178 481.19,-178"/>
<polygon fill="black" stroke="black" points="481.19,-181.5 491.19,-178 481.19,-174.5 481.19,-181.5"/>
</g>
</g>
</svg>
