<?xml version="1.0" encoding="UTF-8" standalone="no"?>
<!DOCTYPE svg PUBLIC "-//W3C//DTD SVG 1.1//EN"
 "http://www.w3.org/Graphics/SVG/1.1/DTD/svg11.dtd">
<!-- Generated by graphviz version 2.47.0 (20210316.0004)
 -->
<!-- Title: dependencies Pages: 1 -->
<svg width="592pt" height="211pt"
 viewBox="0.00 0.00 592.00 211.00" xmlns="http://www.w3.org/2000/svg" xmlns:xlink="http://www.w3.org/1999/xlink">
<g id="graph0" class="graph" transform="scale(1 1) rotate(0) translate(4 207)">
<title>dependencies</title>
<polygon fill="white" stroke="transparent" points="-4,4 -4,-207 588,-207 588,4 -4,4"/>
<text text-anchor="start" x="271.01" y="-42.4" font-family="Times-12" font-weight="bold" font-size="14.00">Legend</text>
<polygon fill="#ffffb3" stroke="transparent" points="58,-10 58,-30 78,-30 78,-10 58,-10"/>
<text text-anchor="start" x="81.63" y="-15.4" font-family="Times-12" font-size="14.00"> &#160;Declarations</text>
<polygon fill="#8dd3c7" stroke="transparent" points="171,-10 171,-30 191,-30 191,-10 171,-10"/>
<text text-anchor="start" x="194.73" y="-15.4" font-family="Times-12" font-size="14.00"> &#160;Module</text>
<polygon fill="#80b1d3" stroke="transparent" points="257,-10 257,-30 277,-30 277,-10 257,-10"/>
<text text-anchor="start" x="280.78" y="-15.4" font-family="Times-12" font-size="14.00"> &#160;Bootstrap</text>
<polygon fill="#fdb462" stroke="transparent" points="354,-10 354,-30 374,-30 374,-10 354,-10"/>
<text text-anchor="start" x="377.67" y="-15.4" font-family="Times-12" font-size="14.00"> &#160;Providers</text>
<polygon fill="#fb8072" stroke="transparent" points="450,-10 450,-30 470,-30 470,-10 450,-10"/>
<text text-anchor="start" x="473.73" y="-15.4" font-family="Times-12" font-size="14.00"> &#160;Exports</text>
<g id="clust1" class="cluster">
<title>cluster_InvoiceModule</title>
<polygon fill="none" stroke="black" stroke-dasharray="1,5" points="8,-70 8,-195 576,-195 576,-70 8,-70"/>
</g>
<g id="clust6" class="cluster">
<title>cluster_InvoiceModule_providers</title>
<polygon fill="none" stroke="black" points="16,-78 16,-130 568,-130 568,-78 16,-78"/>
</g>
<!-- DocumentService -->
<g id="node1" class="node">
<title>DocumentService</title>
<ellipse fill="#fdb462" stroke="black" cx="480" cy="-104" rx="80.44" ry="18"/>
<text text-anchor="middle" x="480" y="-99.8" font-family="Times,serif" font-size="14.00">DocumentService</text>
</g>
<!-- InvoiceModule -->
<g id="node4" class="node">
<title>InvoiceModule</title>
<polygon fill="#8dd3c7" stroke="black" points="348.53,-187 345.53,-191 324.53,-191 321.53,-187 247.47,-187 247.47,-151 348.53,-151 348.53,-187"/>
<text text-anchor="middle" x="298" y="-164.8" font-family="Times,serif" font-size="14.00">InvoiceModule</text>
</g>
<!-- DocumentService&#45;&gt;InvoiceModule -->
<g id="edge1" class="edge">
<title>DocumentService&#45;&gt;InvoiceModule</title>
<path fill="none" stroke="black" d="M480,-122.11C480,-141.34 480,-169 480,-169 480,-169 358.7,-169 358.7,-169"/>
<polygon fill="black" stroke="black" points="358.7,-165.5 348.7,-169 358.7,-172.5 358.7,-165.5"/>
</g>
<!-- HandlebarsService -->
<g id="node2" class="node">
<title>HandlebarsService</title>
<ellipse fill="#fdb462" stroke="black" cx="298" cy="-104" rx="83.93" ry="18"/>
<text text-anchor="middle" x="298" y="-99.8" font-family="Times,serif" font-size="14.00">HandlebarsService</text>
</g>
<!-- HandlebarsService&#45;&gt;InvoiceModule -->
<g id="edge2" class="edge">
<title>HandlebarsService&#45;&gt;InvoiceModule</title>
<path fill="none" stroke="black" d="M298,-122.11C298,-122.11 298,-140.99 298,-140.99"/>
<polygon fill="black" stroke="black" points="294.5,-140.99 298,-150.99 301.5,-140.99 294.5,-140.99"/>
</g>
<!-- UBLHelperService -->
<g id="node3" class="node">
<title>UBLHelperService</title>
<ellipse fill="#fdb462" stroke="black" cx="110" cy="-104" rx="85.65" ry="18"/>
<text text-anchor="middle" x="110" y="-99.8" font-family="Times,serif" font-size="14.00">UBLHelperService</text>
</g>
<!-- UBLHelperService&#45;&gt;InvoiceModule -->
<g id="edge3" class="edge">
<title>UBLHelperService&#45;&gt;InvoiceModule</title>
<path fill="none" stroke="black" d="M110,-122.11C110,-141.34 110,-169 110,-169 110,-169 237.12,-169 237.12,-169"/>
<polygon fill="black" stroke="black" points="237.12,-172.5 247.12,-169 237.12,-165.5 237.12,-172.5"/>
</g>
</g>
</svg>
