<?xml version="1.0" encoding="UTF-8" standalone="no"?>
<!DOCTYPE svg PUBLIC "-//W3C//DTD SVG 1.1//EN"
 "http://www.w3.org/Graphics/SVG/1.1/DTD/svg11.dtd">
<!-- Generated by graphviz version 2.47.0 (20210316.0004)
 -->
<!-- Title: dependencies Pages: 1 -->
<svg width="504pt" height="284pt"
 viewBox="0.00 0.00 504.00 284.00" xmlns="http://www.w3.org/2000/svg" xmlns:xlink="http://www.w3.org/1999/xlink">
<g id="graph0" class="graph" transform="scale(1 1) rotate(0) translate(4 280)">
<title>dependencies</title>
<polygon fill="white" stroke="transparent" points="-4,4 -4,-280 500,-280 500,4 -4,4"/>
<text text-anchor="start" x="227.01" y="-42.4" font-family="Times-12" font-weight="bold" font-size="14.00">Legend</text>
<polygon fill="#ffffb3" stroke="transparent" points="14,-10 14,-30 34,-30 34,-10 14,-10"/>
<text text-anchor="start" x="37.63" y="-15.4" font-family="Times-12" font-size="14.00"> &#160;Declarations</text>
<polygon fill="#8dd3c7" stroke="transparent" points="127,-10 127,-30 147,-30 147,-10 127,-10"/>
<text text-anchor="start" x="150.73" y="-15.4" font-family="Times-12" font-size="14.00"> &#160;Module</text>
<polygon fill="#80b1d3" stroke="transparent" points="213,-10 213,-30 233,-30 233,-10 213,-10"/>
<text text-anchor="start" x="236.78" y="-15.4" font-family="Times-12" font-size="14.00"> &#160;Bootstrap</text>
<polygon fill="#fdb462" stroke="transparent" points="310,-10 310,-30 330,-30 330,-10 310,-10"/>
<text text-anchor="start" x="333.67" y="-15.4" font-family="Times-12" font-size="14.00"> &#160;Providers</text>
<polygon fill="#fb8072" stroke="transparent" points="406,-10 406,-30 426,-30 426,-10 406,-10"/>
<text text-anchor="start" x="429.73" y="-15.4" font-family="Times-12" font-size="14.00"> &#160;Exports</text>
<g id="clust1" class="cluster">
<title>cluster_MinioModule</title>
<polygon fill="none" stroke="black" stroke-dasharray="1,5" points="91.5,-70 91.5,-268 404.5,-268 404.5,-70 91.5,-70"/>
</g>
<g id="clust6" class="cluster">
<title>cluster_MinioModule_providers</title>
<polygon fill="none" stroke="black" points="99.5,-78 99.5,-130 396.5,-130 396.5,-78 99.5,-78"/>
</g>
<g id="clust4" class="cluster">
<title>cluster_MinioModule_exports</title>
<polygon fill="none" stroke="black" points="189.5,-208 189.5,-260 301.5,-260 301.5,-208 189.5,-208"/>
</g>
<!-- MinioService  -->
<g id="node1" class="node">
<title>MinioService </title>
<polygon fill="#fb8072" stroke="black" points="293.2,-252 197.8,-252 197.8,-216 293.2,-216 293.2,-252"/>
<text text-anchor="middle" x="245.5" y="-229.8" font-family="Times,serif" font-size="14.00">MinioService </text>
</g>
<!-- MinioModule -->
<g id="node2" class="node">
<title>MinioModule</title>
<polygon fill="#8dd3c7" stroke="black" points="292.28,-187 289.28,-191 268.28,-191 265.28,-187 198.72,-187 198.72,-151 292.28,-151 292.28,-187"/>
<text text-anchor="middle" x="245.5" y="-164.8" font-family="Times,serif" font-size="14.00">MinioModule</text>
</g>
<!-- MinioModule&#45;&gt;MinioService  -->
<g id="edge1" class="edge">
<title>MinioModule&#45;&gt;MinioService </title>
<path fill="none" stroke="black" stroke-dasharray="5,2" d="M245.5,-187.11C245.5,-187.11 245.5,-205.99 245.5,-205.99"/>
<polygon fill="black" stroke="black" points="242,-205.99 245.5,-215.99 249,-205.99 242,-205.99"/>
</g>
<!-- MinioProvider -->
<g id="node3" class="node">
<title>MinioProvider</title>
<ellipse fill="#fdb462" stroke="black" cx="320.5" cy="-104" rx="67.8" ry="18"/>
<text text-anchor="middle" x="320.5" y="-99.8" font-family="Times,serif" font-size="14.00">MinioProvider</text>
</g>
<!-- MinioProvider&#45;&gt;MinioModule -->
<g id="edge2" class="edge">
<title>MinioProvider&#45;&gt;MinioModule</title>
<path fill="none" stroke="black" d="M272.49,-116.84C272.49,-116.84 272.49,-140.52 272.49,-140.52"/>
<polygon fill="black" stroke="black" points="268.99,-140.52 272.49,-150.52 275.99,-140.52 268.99,-140.52"/>
</g>
<!-- MinioService -->
<g id="node4" class="node">
<title>MinioService</title>
<ellipse fill="#fdb462" stroke="black" cx="171.5" cy="-104" rx="63.7" ry="18"/>
<text text-anchor="middle" x="171.5" y="-99.8" font-family="Times,serif" font-size="14.00">MinioService</text>
</g>
<!-- MinioService&#45;&gt;MinioModule -->
<g id="edge3" class="edge">
<title>MinioService&#45;&gt;MinioModule</title>
<path fill="none" stroke="black" d="M216.86,-116.84C216.86,-116.84 216.86,-140.52 216.86,-140.52"/>
<polygon fill="black" stroke="black" points="213.36,-140.52 216.86,-150.52 220.36,-140.52 213.36,-140.52"/>
</g>
</g>
</svg>
