<?xml version="1.0" encoding="UTF-8" standalone="no"?>
<!DOCTYPE svg PUBLIC "-//W3C//DTD SVG 1.1//EN"
 "http://www.w3.org/Graphics/SVG/1.1/DTD/svg11.dtd">
<!-- Generated by graphviz version 2.47.0 (20210316.0004)
 -->
<!-- Title: dependencies Pages: 1 -->
<svg width="3321pt" height="371pt"
 viewBox="0.00 0.00 3321.00 371.00" xmlns="http://www.w3.org/2000/svg" xmlns:xlink="http://www.w3.org/1999/xlink">
<g id="graph0" class="graph" transform="scale(1 1) rotate(0) translate(4 367)">
<title>dependencies</title>
<polygon fill="white" stroke="transparent" points="-4,4 -4,-367 3317,-367 3317,4 -4,4"/>
<text text-anchor="start" x="1635.51" y="-42.4" font-family="Times-12" font-weight="bold" font-size="14.00">Legend</text>
<polygon fill="#ffffb3" stroke="transparent" points="1422.5,-10 1422.5,-30 1442.5,-30 1442.5,-10 1422.5,-10"/>
<text text-anchor="start" x="1446.13" y="-15.4" font-family="Times-12" font-size="14.00"> &#160;Declarations</text>
<polygon fill="#8dd3c7" stroke="transparent" points="1535.5,-10 1535.5,-30 1555.5,-30 1555.5,-10 1535.5,-10"/>
<text text-anchor="start" x="1559.23" y="-15.4" font-family="Times-12" font-size="14.00"> &#160;Module</text>
<polygon fill="#80b1d3" stroke="transparent" points="1621.5,-10 1621.5,-30 1641.5,-30 1641.5,-10 1621.5,-10"/>
<text text-anchor="start" x="1645.28" y="-15.4" font-family="Times-12" font-size="14.00"> &#160;Bootstrap</text>
<polygon fill="#fdb462" stroke="transparent" points="1718.5,-10 1718.5,-30 1738.5,-30 1738.5,-10 1718.5,-10"/>
<text text-anchor="start" x="1742.17" y="-15.4" font-family="Times-12" font-size="14.00"> &#160;Providers</text>
<polygon fill="#fb8072" stroke="transparent" points="1814.5,-10 1814.5,-30 1834.5,-30 1834.5,-10 1814.5,-10"/>
<text text-anchor="start" x="1838.23" y="-15.4" font-family="Times-12" font-size="14.00"> &#160;Exports</text>
<g id="clust1" class="cluster">
<title>cluster_AppModule</title>
<polygon fill="none" stroke="black" stroke-dasharray="1,5" points="742,-146 742,-347 1643,-347 1643,-146 742,-146"/>
</g>
<g id="clust3" class="cluster">
<title>cluster_AppModule_imports</title>
<polygon fill="none" stroke="black" points="750,-154 750,-271 1635,-271 1635,-154 750,-154"/>
</g>
<g id="clust7" class="cluster">
<title>cluster_AuthModule</title>
<polygon fill="none" stroke="black" stroke-dasharray="1,5" points="1409,-70 1409,-138 2528,-138 2528,-70 1409,-70"/>
</g>
<g id="clust10" class="cluster">
<title>cluster_AuthModule_exports</title>
<polygon fill="none" stroke="black" points="1417,-78 1417,-130 1742,-130 1742,-78 1417,-78"/>
</g>
<g id="clust12" class="cluster">
<title>cluster_AuthModule_providers</title>
<polygon fill="none" stroke="black" points="1750,-78 1750,-130 2520,-130 2520,-78 1750,-78"/>
</g>
<g id="clust13" class="cluster">
<title>cluster_BusinessModule</title>
<polygon fill="none" stroke="black" stroke-dasharray="1,5" points="3123,-219 3123,-355 3305,-355 3305,-219 3123,-219"/>
</g>
<g id="clust16" class="cluster">
<title>cluster_BusinessModule_exports</title>
<polygon fill="none" stroke="black" points="3131,-295 3131,-347 3297,-347 3297,-295 3131,-295"/>
</g>
<g id="clust19" class="cluster">
<title>cluster_CommonModule</title>
<polygon fill="none" stroke="black" stroke-dasharray="1,5" points="8,-211 8,-279 336,-279 336,-211 8,-211"/>
</g>
<g id="clust22" class="cluster">
<title>cluster_CommonModule_exports</title>
<polygon fill="none" stroke="black" points="196,-219 196,-271 328,-271 328,-219 196,-219"/>
</g>
<g id="clust24" class="cluster">
<title>cluster_CommonModule_providers</title>
<polygon fill="none" stroke="black" points="16,-219 16,-271 188,-271 188,-219 16,-219"/>
</g>
<g id="clust25" class="cluster">
<title>cluster_CustomerModule</title>
<polygon fill="none" stroke="black" stroke-dasharray="1,5" points="637,-70 637,-138 825,-138 825,-70 637,-70"/>
</g>
<g id="clust30" class="cluster">
<title>cluster_CustomerModule_providers</title>
<polygon fill="none" stroke="black" points="645,-78 645,-130 817,-130 817,-78 645,-78"/>
</g>
<g id="clust37" class="cluster">
<title>cluster_EInvoiceModule</title>
<polygon fill="none" stroke="black" stroke-dasharray="1,5" points="1651,-287 1651,-355 3115,-355 3115,-287 1651,-287"/>
</g>
<g id="clust40" class="cluster">
<title>cluster_EInvoiceModule_exports</title>
<polygon fill="none" stroke="black" points="2421,-295 2421,-347 3107,-347 3107,-295 2421,-295"/>
</g>
<g id="clust42" class="cluster">
<title>cluster_EInvoiceModule_providers</title>
<polygon fill="none" stroke="black" points="1659,-295 1659,-347 2413,-347 2413,-295 1659,-295"/>
</g>
<g id="clust43" class="cluster">
<title>cluster_ExchangeRateModule</title>
<polygon fill="none" stroke="black" stroke-dasharray="1,5" points="344,-211 344,-279 734,-279 734,-211 344,-211"/>
</g>
<g id="clust46" class="cluster">
<title>cluster_ExchangeRateModule_exports</title>
<polygon fill="none" stroke="black" points="568,-219 568,-271 726,-271 726,-219 568,-219"/>
</g>
<g id="clust48" class="cluster">
<title>cluster_ExchangeRateModule_providers</title>
<polygon fill="none" stroke="black" points="352,-219 352,-271 560,-271 560,-219 352,-219"/>
</g>
<g id="clust49" class="cluster">
<title>cluster_InvoiceModule</title>
<polygon fill="none" stroke="black" stroke-dasharray="1,5" points="833,-70 833,-138 1401,-138 1401,-70 833,-70"/>
</g>
<g id="clust54" class="cluster">
<title>cluster_InvoiceModule_providers</title>
<polygon fill="none" stroke="black" points="841,-78 841,-130 1393,-130 1393,-78 841,-78"/>
</g>
<g id="clust55" class="cluster">
<title>cluster_MinioModule</title>
<polygon fill="none" stroke="black" stroke-dasharray="1,5" points="196,-70 196,-138 629,-138 629,-70 196,-70"/>
</g>
<g id="clust58" class="cluster">
<title>cluster_MinioModule_exports</title>
<polygon fill="none" stroke="black" points="509,-78 509,-130 621,-130 621,-78 509,-78"/>
</g>
<g id="clust60" class="cluster">
<title>cluster_MinioModule_providers</title>
<polygon fill="none" stroke="black" points="204,-78 204,-130 501,-130 501,-78 204,-78"/>
</g>
<!-- AuthModule -->
<g id="node1" class="node">
<title>AuthModule</title>
<polygon fill="#8dd3c7" stroke="black" points="1626.55,-198 1623.55,-202 1602.55,-202 1599.55,-198 1539.45,-198 1539.45,-162 1626.55,-162 1626.55,-198"/>
<text text-anchor="middle" x="1583" y="-175.8" font-family="Times,serif" font-size="14.00">AuthModule</text>
</g>
<!-- AppModule -->
<g id="node9" class="node">
<title>AppModule</title>
<polygon fill="#8dd3c7" stroke="black" points="1309.66,-339 1306.66,-343 1285.66,-343 1282.66,-339 1226.34,-339 1226.34,-303 1309.66,-303 1309.66,-339"/>
<text text-anchor="middle" x="1268" y="-316.8" font-family="Times,serif" font-size="14.00">AppModule</text>
</g>
<!-- AuthModule&#45;&gt;AppModule -->
<g id="edge1" class="edge">
<title>AuthModule&#45;&gt;AppModule</title>
<path fill="none" stroke="black" d="M1583,-198.11C1583,-207.9 1583,-218 1583,-218 1583,-218 1298.53,-218 1298.53,-218 1298.53,-218 1298.53,-292.59 1298.53,-292.59"/>
<polygon fill="black" stroke="black" points="1295.03,-292.59 1298.53,-302.59 1302.03,-292.59 1295.03,-292.59"/>
</g>
<!-- AuthService  -->
<g id="node10" class="node">
<title>AuthService </title>
<polygon fill="#fb8072" stroke="black" points="1733.98,-122 1644.02,-122 1644.02,-86 1733.98,-86 1733.98,-122"/>
<text text-anchor="middle" x="1689" y="-99.8" font-family="Times,serif" font-size="14.00">AuthService </text>
</g>
<!-- AuthModule&#45;&gt;AuthService  -->
<g id="edge9" class="edge">
<title>AuthModule&#45;&gt;AuthService </title>
<path fill="none" stroke="black" stroke-dasharray="5,2" d="M1626.61,-168C1642.12,-168 1655.8,-168 1655.8,-168 1655.8,-168 1655.8,-132.17 1655.8,-132.17"/>
<polygon fill="black" stroke="black" points="1659.3,-132.17 1655.8,-122.17 1652.3,-132.17 1659.3,-132.17"/>
</g>
<!-- JwtStrategy  -->
<g id="node11" class="node">
<title>JwtStrategy </title>
<polygon fill="#fb8072" stroke="black" points="1625.6,-122 1540.4,-122 1540.4,-86 1625.6,-86 1625.6,-122"/>
<text text-anchor="middle" x="1583" y="-99.8" font-family="Times,serif" font-size="14.00">JwtStrategy </text>
</g>
<!-- AuthModule&#45;&gt;JwtStrategy  -->
<g id="edge10" class="edge">
<title>AuthModule&#45;&gt;JwtStrategy </title>
<path fill="none" stroke="black" stroke-dasharray="5,2" d="M1583,-161.99C1583,-161.99 1583,-132.15 1583,-132.15"/>
<polygon fill="black" stroke="black" points="1586.5,-132.15 1583,-122.15 1579.5,-132.15 1586.5,-132.15"/>
</g>
<!-- TokenService  -->
<g id="node12" class="node">
<title>TokenService </title>
<polygon fill="#fb8072" stroke="black" points="1522.75,-122 1425.25,-122 1425.25,-86 1522.75,-86 1522.75,-122"/>
<text text-anchor="middle" x="1474" y="-99.8" font-family="Times,serif" font-size="14.00">TokenService </text>
</g>
<!-- AuthModule&#45;&gt;TokenService  -->
<g id="edge11" class="edge">
<title>AuthModule&#45;&gt;TokenService </title>
<path fill="none" stroke="black" stroke-dasharray="5,2" d="M1539.06,-180C1534.18,-180 1530.92,-180 1530.92,-180 1530.92,-180 1530.92,-104 1530.92,-104 1530.92,-104 1530.13,-104 1530.13,-104"/>
<polygon fill="black" stroke="black" points="1533.01,-100.5 1523.01,-104 1533.01,-107.5 1533.01,-100.5"/>
</g>
<!-- CommonModule -->
<g id="node2" class="node">
<title>CommonModule</title>
<polygon fill="#8dd3c7" stroke="black" points="869.67,-198 866.67,-202 845.67,-202 842.67,-198 758.33,-198 758.33,-162 869.67,-162 869.67,-198"/>
<text text-anchor="middle" x="814" y="-175.8" font-family="Times,serif" font-size="14.00">CommonModule</text>
</g>
<!-- EInvoiceModule -->
<g id="node5" class="node">
<title>EInvoiceModule</title>
<polygon fill="#8dd3c7" stroke="black" points="1627.08,-263 1624.08,-267 1603.08,-267 1600.08,-263 1516.92,-263 1516.92,-227 1627.08,-227 1627.08,-263"/>
<text text-anchor="middle" x="1572" y="-240.8" font-family="Times,serif" font-size="14.00">EInvoiceModule</text>
</g>
<!-- CommonModule&#45;&gt;EInvoiceModule -->
<g id="edge23" class="edge">
<title>CommonModule&#45;&gt;EInvoiceModule</title>
<path fill="none" stroke="black" d="M832.61,-198.27C832.61,-216.56 832.61,-242 832.61,-242 832.61,-242 1506.73,-242 1506.73,-242"/>
<polygon fill="black" stroke="black" points="1506.73,-245.5 1516.73,-242 1506.73,-238.5 1506.73,-245.5"/>
</g>
<!-- CommonModule&#45;&gt;AppModule -->
<g id="edge2" class="edge">
<title>CommonModule&#45;&gt;AppModule</title>
<path fill="none" stroke="black" d="M795.39,-198.09C795.39,-237.99 795.39,-330 795.39,-330 795.39,-330 1216.06,-330 1216.06,-330"/>
<polygon fill="black" stroke="black" points="1216.06,-333.5 1226.06,-330 1216.06,-326.5 1216.06,-333.5"/>
</g>
<!-- AuditLogService  -->
<g id="node20" class="node">
<title>AuditLogService </title>
<polygon fill="#fb8072" stroke="black" points="319.92,-263 204.08,-263 204.08,-227 319.92,-227 319.92,-263"/>
<text text-anchor="middle" x="262" y="-240.8" font-family="Times,serif" font-size="14.00">AuditLogService </text>
</g>
<!-- CommonModule&#45;&gt;AuditLogService  -->
<g id="edge19" class="edge">
<title>CommonModule&#45;&gt;AuditLogService </title>
<path fill="none" stroke="black" stroke-dasharray="5,2" d="M758.19,-186C618.7,-186 266.03,-186 266.03,-186 266.03,-186 266.03,-216.98 266.03,-216.98"/>
<polygon fill="black" stroke="black" points="262.53,-216.98 266.03,-226.98 269.53,-216.98 262.53,-216.98"/>
</g>
<!-- CustomerModule -->
<g id="node3" class="node">
<title>CustomerModule</title>
<polygon fill="#8dd3c7" stroke="black" points="1520.99,-198 1517.99,-202 1496.99,-202 1493.99,-198 1407.01,-198 1407.01,-162 1520.99,-162 1520.99,-198"/>
<text text-anchor="middle" x="1464" y="-175.8" font-family="Times,serif" font-size="14.00">CustomerModule</text>
</g>
<!-- CustomerModule&#45;&gt;AppModule -->
<g id="edge3" class="edge">
<title>CustomerModule&#45;&gt;AppModule</title>
<path fill="none" stroke="black" d="M1461.98,-198.14C1461.98,-236.23 1461.98,-321 1461.98,-321 1461.98,-321 1320.09,-321 1320.09,-321"/>
<polygon fill="black" stroke="black" points="1320.09,-317.5 1310.09,-321 1320.09,-324.5 1320.09,-317.5"/>
</g>
<!-- DatabaseModule -->
<g id="node4" class="node">
<title>DatabaseModule</title>
<polygon fill="#8dd3c7" stroke="black" points="1157.35,-198 1154.35,-202 1133.35,-202 1130.35,-198 1046.65,-198 1046.65,-162 1157.35,-162 1157.35,-198"/>
<text text-anchor="middle" x="1102" y="-175.8" font-family="Times,serif" font-size="14.00">DatabaseModule</text>
</g>
<!-- DatabaseModule&#45;&gt;AppModule -->
<g id="edge4" class="edge">
<title>DatabaseModule&#45;&gt;AppModule</title>
<path fill="none" stroke="black" d="M1102,-198.08C1102,-234.23 1102,-312 1102,-312 1102,-312 1216.11,-312 1216.11,-312"/>
<polygon fill="black" stroke="black" points="1216.11,-315.5 1226.11,-312 1216.11,-308.5 1216.11,-315.5"/>
</g>
<!-- EInvoiceModule&#45;&gt;AppModule -->
<g id="edge5" class="edge">
<title>EInvoiceModule&#45;&gt;AppModule</title>
<path fill="none" stroke="black" d="M1516.83,-256C1438.43,-256 1304.18,-256 1304.18,-256 1304.18,-256 1304.18,-292.89 1304.18,-292.89"/>
<polygon fill="black" stroke="black" points="1300.68,-292.89 1304.18,-302.89 1307.68,-292.89 1300.68,-292.89"/>
</g>
<!-- ServiceAccountService  -->
<g id="node18" class="node">
<title>ServiceAccountService </title>
<polygon fill="#fb8072" stroke="black" points="3289.38,-339 3138.62,-339 3138.62,-303 3289.38,-303 3289.38,-339"/>
<text text-anchor="middle" x="3214" y="-316.8" font-family="Times,serif" font-size="14.00">ServiceAccountService </text>
</g>
<!-- EInvoiceModule&#45;&gt;ServiceAccountService  -->
<g id="edge29" class="edge">
<title>EInvoiceModule&#45;&gt;ServiceAccountService </title>
<path fill="none" stroke="black" stroke-dasharray="5,2" d="M1627.05,-238C1902.57,-238 3118.67,-238 3118.67,-238 3118.67,-238 3118.67,-321 3118.67,-321 3118.67,-321 3128.43,-321 3128.43,-321"/>
<polygon fill="black" stroke="black" points="3128.43,-324.5 3138.43,-321 3128.43,-317.5 3128.43,-324.5"/>
</g>
<!-- AttestationService  -->
<g id="node23" class="node">
<title>AttestationService </title>
<polygon fill="#fb8072" stroke="black" points="2551.41,-339 2428.59,-339 2428.59,-303 2551.41,-303 2551.41,-339"/>
<text text-anchor="middle" x="2490" y="-316.8" font-family="Times,serif" font-size="14.00">AttestationService </text>
</g>
<!-- EInvoiceModule&#45;&gt;AttestationService  -->
<g id="edge25" class="edge">
<title>EInvoiceModule&#45;&gt;AttestationService </title>
<path fill="none" stroke="black" stroke-dasharray="5,2" d="M1627.31,-251C1820.9,-251 2456.25,-251 2456.25,-251 2456.25,-251 2456.25,-292.97 2456.25,-292.97"/>
<polygon fill="black" stroke="black" points="2452.75,-292.97 2456.25,-302.97 2459.75,-292.97 2452.75,-292.97"/>
</g>
<!-- EKYBService  -->
<g id="node24" class="node">
<title>EKYBService </title>
<polygon fill="#fb8072" stroke="black" points="3098.58,-339 2999.42,-339 2999.42,-303 3098.58,-303 3098.58,-339"/>
<text text-anchor="middle" x="3049" y="-316.8" font-family="Times,serif" font-size="14.00">EKYBService </text>
</g>
<!-- EInvoiceModule&#45;&gt;EKYBService  -->
<g id="edge26" class="edge">
<title>EInvoiceModule&#45;&gt;EKYBService </title>
<path fill="none" stroke="black" stroke-dasharray="5,2" d="M1627.2,-240C1895.34,-240 3049,-240 3049,-240 3049,-240 3049,-292.62 3049,-292.62"/>
<polygon fill="black" stroke="black" points="3045.5,-292.62 3049,-302.62 3052.5,-292.62 3045.5,-292.62"/>
</g>
<!-- InvoiceProcessorService  -->
<g id="node25" class="node">
<title>InvoiceProcessorService </title>
<polygon fill="#fb8072" stroke="black" points="2980.88,-339 2823.12,-339 2823.12,-303 2980.88,-303 2980.88,-339"/>
<text text-anchor="middle" x="2902" y="-316.8" font-family="Times,serif" font-size="14.00">InvoiceProcessorService </text>
</g>
<!-- EInvoiceModule&#45;&gt;InvoiceProcessorService  -->
<g id="edge27" class="edge">
<title>EInvoiceModule&#45;&gt;InvoiceProcessorService </title>
<path fill="none" stroke="black" stroke-dasharray="5,2" d="M1627.46,-243C1879.17,-243 2902,-243 2902,-243 2902,-243 2902,-292.91 2902,-292.91"/>
<polygon fill="black" stroke="black" points="2898.5,-292.91 2902,-302.91 2905.5,-292.91 2898.5,-292.91"/>
</g>
<!-- NotificationService  -->
<g id="node26" class="node">
<title>NotificationService </title>
<polygon fill="#fb8072" stroke="black" points="2804.63,-339 2675.37,-339 2675.37,-303 2804.63,-303 2804.63,-339"/>
<text text-anchor="middle" x="2740" y="-316.8" font-family="Times,serif" font-size="14.00">NotificationService </text>
</g>
<!-- EInvoiceModule&#45;&gt;NotificationService  -->
<g id="edge28" class="edge">
<title>EInvoiceModule&#45;&gt;NotificationService </title>
<path fill="none" stroke="black" stroke-dasharray="5,2" d="M1627.16,-245C1858.68,-245 2740,-245 2740,-245 2740,-245 2740,-292.99 2740,-292.99"/>
<polygon fill="black" stroke="black" points="2736.5,-292.99 2740,-302.99 2743.5,-292.99 2736.5,-292.99"/>
</g>
<!-- UserService  -->
<g id="node27" class="node">
<title>UserService </title>
<polygon fill="#fb8072" stroke="black" points="2656.9,-339 2569.1,-339 2569.1,-303 2656.9,-303 2656.9,-339"/>
<text text-anchor="middle" x="2613" y="-316.8" font-family="Times,serif" font-size="14.00">UserService </text>
</g>
<!-- EInvoiceModule&#45;&gt;UserService  -->
<g id="edge30" class="edge">
<title>EInvoiceModule&#45;&gt;UserService </title>
<path fill="none" stroke="black" stroke-dasharray="5,2" d="M1627.23,-248C1842.45,-248 2613,-248 2613,-248 2613,-248 2613,-292.96 2613,-292.96"/>
<polygon fill="black" stroke="black" points="2609.5,-292.96 2613,-302.96 2616.5,-292.96 2609.5,-292.96"/>
</g>
<!-- ExchangeRateModule -->
<g id="node6" class="node">
<title>ExchangeRateModule</title>
<polygon fill="#8dd3c7" stroke="black" points="1028.4,-198 1025.4,-202 1004.4,-202 1001.4,-198 887.6,-198 887.6,-162 1028.4,-162 1028.4,-198"/>
<text text-anchor="middle" x="958" y="-175.8" font-family="Times,serif" font-size="14.00">ExchangeRateModule</text>
</g>
<!-- ExchangeRateModule&#45;&gt;AppModule -->
<g id="edge6" class="edge">
<title>ExchangeRateModule&#45;&gt;AppModule</title>
<path fill="none" stroke="black" d="M993.1,-198.14C993.1,-236.23 993.1,-321 993.1,-321 993.1,-321 1216.25,-321 1216.25,-321"/>
<polygon fill="black" stroke="black" points="1216.25,-324.5 1226.25,-321 1216.25,-317.5 1216.25,-324.5"/>
</g>
<!-- ExchangeRateService  -->
<g id="node32" class="node">
<title>ExchangeRateService </title>
<polygon fill="#fb8072" stroke="black" points="718.33,-263 575.67,-263 575.67,-227 718.33,-227 718.33,-263"/>
<text text-anchor="middle" x="647" y="-240.8" font-family="Times,serif" font-size="14.00">ExchangeRateService </text>
</g>
<!-- ExchangeRateModule&#45;&gt;ExchangeRateService  -->
<g id="edge37" class="edge">
<title>ExchangeRateModule&#45;&gt;ExchangeRateService </title>
<path fill="none" stroke="black" stroke-dasharray="5,2" d="M958,-198.13C958,-218.57 958,-249 958,-249 958,-249 728.35,-249 728.35,-249"/>
<polygon fill="black" stroke="black" points="728.35,-245.5 718.35,-249 728.35,-252.5 728.35,-245.5"/>
</g>
<!-- InvoiceModule -->
<g id="node7" class="node">
<title>InvoiceModule</title>
<polygon fill="#8dd3c7" stroke="black" points="1388.53,-198 1385.53,-202 1364.53,-202 1361.53,-198 1287.47,-198 1287.47,-162 1388.53,-162 1388.53,-198"/>
<text text-anchor="middle" x="1338" y="-175.8" font-family="Times,serif" font-size="14.00">InvoiceModule</text>
</g>
<!-- InvoiceModule&#45;&gt;AppModule -->
<g id="edge7" class="edge">
<title>InvoiceModule&#45;&gt;AppModule</title>
<path fill="none" stroke="black" d="M1292.88,-198.14C1292.88,-198.14 1292.88,-292.93 1292.88,-292.93"/>
<polygon fill="black" stroke="black" points="1289.38,-292.92 1292.88,-302.93 1296.38,-292.93 1289.38,-292.92"/>
</g>
<!-- MinioModule -->
<g id="node8" class="node">
<title>MinioModule</title>
<polygon fill="#8dd3c7" stroke="black" points="1268.78,-198 1265.78,-202 1244.78,-202 1241.78,-198 1175.22,-198 1175.22,-162 1268.78,-162 1268.78,-198"/>
<text text-anchor="middle" x="1222" y="-175.8" font-family="Times,serif" font-size="14.00">MinioModule</text>
</g>
<!-- MinioModule&#45;&gt;EInvoiceModule -->
<g id="edge24" class="edge">
<title>MinioModule&#45;&gt;EInvoiceModule</title>
<path fill="none" stroke="black" d="M1254.65,-198.01C1254.65,-214.05 1254.65,-235 1254.65,-235 1254.65,-235 1506.72,-235 1506.72,-235"/>
<polygon fill="black" stroke="black" points="1506.72,-238.5 1516.72,-235 1506.72,-231.5 1506.72,-238.5"/>
</g>
<!-- MinioModule&#45;&gt;AppModule -->
<g id="edge8" class="edge">
<title>MinioModule&#45;&gt;AppModule</title>
<path fill="none" stroke="black" d="M1240.41,-198.14C1240.41,-198.14 1240.41,-292.93 1240.41,-292.93"/>
<polygon fill="black" stroke="black" points="1236.91,-292.92 1240.41,-302.93 1243.91,-292.93 1236.91,-292.92"/>
</g>
<!-- MinioService  -->
<g id="node37" class="node">
<title>MinioService </title>
<polygon fill="#fb8072" stroke="black" points="612.7,-122 517.3,-122 517.3,-86 612.7,-86 612.7,-122"/>
<text text-anchor="middle" x="565" y="-99.8" font-family="Times,serif" font-size="14.00">MinioService </text>
</g>
<!-- MinioModule&#45;&gt;MinioService  -->
<g id="edge42" class="edge">
<title>MinioModule&#45;&gt;MinioService </title>
<path fill="none" stroke="black" stroke-dasharray="5,2" d="M1194.22,-161.96C1194.22,-154.25 1194.22,-147 1194.22,-147 1194.22,-147 594.34,-147 594.34,-147 594.34,-147 594.34,-132.49 594.34,-132.49"/>
<polygon fill="black" stroke="black" points="597.84,-132.49 594.34,-122.49 590.84,-132.49 597.84,-132.49"/>
</g>
<!-- AuthService -->
<g id="node13" class="node">
<title>AuthService</title>
<ellipse fill="#fdb462" stroke="black" cx="1949" cy="-104" rx="59.11" ry="18"/>
<text text-anchor="middle" x="1949" y="-99.8" font-family="Times,serif" font-size="14.00">AuthService</text>
</g>
<!-- AuthService&#45;&gt;AuthModule -->
<g id="edge12" class="edge">
<title>AuthService&#45;&gt;AuthModule</title>
<path fill="none" stroke="black" d="M1949,-122.29C1949,-144.21 1949,-178 1949,-178 1949,-178 1636.78,-178 1636.78,-178"/>
<polygon fill="black" stroke="black" points="1636.78,-174.5 1626.78,-178 1636.78,-181.5 1636.78,-174.5"/>
</g>
<!-- JwtStrategy -->
<g id="node14" class="node">
<title>JwtStrategy</title>
<ellipse fill="#fdb462" stroke="black" cx="1815" cy="-104" rx="56.76" ry="18"/>
<text text-anchor="middle" x="1815" y="-99.8" font-family="Times,serif" font-size="14.00">JwtStrategy</text>
</g>
<!-- JwtStrategy&#45;&gt;AuthModule -->
<g id="edge13" class="edge">
<title>JwtStrategy&#45;&gt;AuthModule</title>
<path fill="none" stroke="black" d="M1799.51,-121.41C1799.51,-141.85 1799.51,-173 1799.51,-173 1799.51,-173 1636.55,-173 1636.55,-173"/>
<polygon fill="black" stroke="black" points="1636.55,-169.5 1626.55,-173 1636.55,-176.5 1636.55,-169.5"/>
</g>
<!-- ServiceAccountService -->
<g id="node15" class="node">
<title>ServiceAccountService</title>
<ellipse fill="#fdb462" stroke="black" cx="2410" cy="-104" rx="101.82" ry="18"/>
<text text-anchor="middle" x="2410" y="-99.8" font-family="Times,serif" font-size="14.00">ServiceAccountService</text>
</g>
<!-- ServiceAccountService&#45;&gt;AuthModule -->
<g id="edge14" class="edge">
<title>ServiceAccountService&#45;&gt;AuthModule</title>
<path fill="none" stroke="black" d="M2356.85,-119.5C2356.85,-145 2356.85,-193 2356.85,-193 2356.85,-193 1636.82,-193 1636.82,-193"/>
<polygon fill="black" stroke="black" points="1636.82,-189.5 1626.82,-193 1636.82,-196.5 1636.82,-189.5"/>
</g>
<!-- ServiceAccountService&#45;&gt;CustomerModule -->
<g id="edge22" class="edge">
<title>ServiceAccountService&#45;&gt;CustomerModule</title>
<path fill="none" stroke="black" d="M2332.6,-115.77C2332.6,-121.43 2332.6,-127 2332.6,-127 2332.6,-127 1473.19,-127 1473.19,-127 1473.19,-127 1473.19,-151.76 1473.19,-151.76"/>
<polygon fill="black" stroke="black" points="1469.69,-151.76 1473.19,-161.76 1476.69,-151.76 1469.69,-151.76"/>
</g>
<!-- ServiceAccountService&#45;&gt;EInvoiceModule -->
<g id="edge35" class="edge">
<title>ServiceAccountService&#45;&gt;EInvoiceModule</title>
<path fill="none" stroke="black" d="M2381.11,-121.4C2381.11,-157.03 2381.11,-235 2381.11,-235 2381.11,-235 1637.29,-235 1637.29,-235"/>
<polygon fill="black" stroke="black" points="1637.3,-231.5 1627.29,-235 1637.29,-238.5 1637.3,-231.5"/>
</g>
<!-- BusinessModule -->
<g id="node19" class="node">
<title>BusinessModule</title>
<polygon fill="#8dd3c7" stroke="black" points="3254.83,-263 3251.83,-267 3230.83,-267 3227.83,-263 3145.17,-263 3145.17,-227 3254.83,-227 3254.83,-263"/>
<text text-anchor="middle" x="3200" y="-240.8" font-family="Times,serif" font-size="14.00">BusinessModule</text>
</g>
<!-- ServiceAccountService&#45;&gt;BusinessModule -->
<g id="edge18" class="edge">
<title>ServiceAccountService&#45;&gt;BusinessModule</title>
<path fill="none" stroke="black" d="M2483.96,-116.54C2483.96,-148.41 2483.96,-230 2483.96,-230 2483.96,-230 3135.3,-230 3135.3,-230"/>
<polygon fill="black" stroke="black" points="3135.3,-233.5 3145.3,-230 3135.3,-226.5 3135.3,-233.5"/>
</g>
<!-- TokenService -->
<g id="node16" class="node">
<title>TokenService</title>
<ellipse fill="#fdb462" stroke="black" cx="2091" cy="-104" rx="64.83" ry="18"/>
<text text-anchor="middle" x="2091" y="-99.8" font-family="Times,serif" font-size="14.00">TokenService</text>
</g>
<!-- TokenService&#45;&gt;AuthModule -->
<g id="edge15" class="edge">
<title>TokenService&#45;&gt;AuthModule</title>
<path fill="none" stroke="black" d="M2048.91,-117.76C2048.91,-140.39 2048.91,-183 2048.91,-183 2048.91,-183 1636.83,-183 1636.83,-183"/>
<polygon fill="black" stroke="black" points="1636.83,-179.5 1626.83,-183 1636.83,-186.5 1636.83,-179.5"/>
</g>
<!-- UserService -->
<g id="node17" class="node">
<title>UserService</title>
<ellipse fill="#fdb462" stroke="black" cx="2232" cy="-104" rx="58.44" ry="18"/>
<text text-anchor="middle" x="2232" y="-99.8" font-family="Times,serif" font-size="14.00">UserService</text>
</g>
<!-- UserService&#45;&gt;AuthModule -->
<g id="edge16" class="edge">
<title>UserService&#45;&gt;AuthModule</title>
<path fill="none" stroke="black" d="M2189.94,-116.76C2189.94,-140.26 2189.94,-188 2189.94,-188 2189.94,-188 1636.65,-188 1636.65,-188"/>
<polygon fill="black" stroke="black" points="1636.65,-184.5 1626.65,-188 1636.65,-191.5 1636.65,-184.5"/>
</g>
<!-- UserService&#45;&gt;EInvoiceModule -->
<g id="edge36" class="edge">
<title>UserService&#45;&gt;EInvoiceModule</title>
<path fill="none" stroke="black" d="M2206.11,-120.34C2206.11,-155.05 2206.11,-233 2206.11,-233 2206.11,-233 1637.16,-233 1637.16,-233"/>
<polygon fill="black" stroke="black" points="1637.16,-229.5 1627.16,-233 1637.16,-236.5 1637.16,-229.5"/>
</g>
<!-- BusinessModule&#45;&gt;ServiceAccountService  -->
<g id="edge17" class="edge">
<title>BusinessModule&#45;&gt;ServiceAccountService </title>
<path fill="none" stroke="black" stroke-dasharray="5,2" d="M3200,-263.01C3200,-263.01 3200,-292.85 3200,-292.85"/>
<polygon fill="black" stroke="black" points="3196.5,-292.85 3200,-302.85 3203.5,-292.85 3196.5,-292.85"/>
</g>
<!-- AuditLogService -->
<g id="node21" class="node">
<title>AuditLogService</title>
<ellipse fill="#fdb462" stroke="black" cx="102" cy="-245" rx="77.59" ry="18"/>
<text text-anchor="middle" x="102" y="-240.8" font-family="Times,serif" font-size="14.00">AuditLogService</text>
</g>
<!-- AuditLogService&#45;&gt;CommonModule -->
<g id="edge20" class="edge">
<title>AuditLogService&#45;&gt;CommonModule</title>
<path fill="none" stroke="black" d="M102,-226.72C102,-205.68 102,-174 102,-174 102,-174 748.13,-174 748.13,-174"/>
<polygon fill="black" stroke="black" points="748.13,-177.5 758.13,-174 748.13,-170.5 748.13,-177.5"/>
</g>
<!-- CustomerService -->
<g id="node22" class="node">
<title>CustomerService</title>
<ellipse fill="#fdb462" stroke="black" cx="731" cy="-104" rx="77.58" ry="18"/>
<text text-anchor="middle" x="731" y="-99.8" font-family="Times,serif" font-size="14.00">CustomerService</text>
</g>
<!-- CustomerService&#45;&gt;CustomerModule -->
<g id="edge21" class="edge">
<title>CustomerService&#45;&gt;CustomerModule</title>
<path fill="none" stroke="black" d="M783.35,-117.34C783.35,-124.56 783.35,-132 783.35,-132 783.35,-132 1416.19,-132 1416.19,-132 1416.19,-132 1416.19,-151.85 1416.19,-151.85"/>
<polygon fill="black" stroke="black" points="1412.69,-151.85 1416.19,-161.85 1419.69,-151.85 1412.69,-151.85"/>
</g>
<!-- AttestationService -->
<g id="node28" class="node">
<title>AttestationService</title>
<ellipse fill="#fdb462" stroke="black" cx="2323" cy="-321" rx="82.24" ry="18"/>
<text text-anchor="middle" x="2323" y="-316.8" font-family="Times,serif" font-size="14.00">AttestationService</text>
</g>
<!-- AttestationService&#45;&gt;EInvoiceModule -->
<g id="edge31" class="edge">
<title>AttestationService&#45;&gt;EInvoiceModule</title>
<path fill="none" stroke="black" d="M2265.43,-307.89C2265.43,-288.13 2265.43,-253 2265.43,-253 2265.43,-253 1637.28,-253 1637.28,-253"/>
<polygon fill="black" stroke="black" points="1637.28,-249.5 1627.28,-253 1637.28,-256.5 1637.28,-249.5"/>
</g>
<!-- EKYBService -->
<g id="node29" class="node">
<title>EKYBService</title>
<ellipse fill="#fdb462" stroke="black" cx="2156" cy="-321" rx="66.05" ry="18"/>
<text text-anchor="middle" x="2156" y="-316.8" font-family="Times,serif" font-size="14.00">EKYBService</text>
</g>
<!-- EKYBService&#45;&gt;EInvoiceModule -->
<g id="edge32" class="edge">
<title>EKYBService&#45;&gt;EInvoiceModule</title>
<path fill="none" stroke="black" d="M2122.69,-305.27C2122.69,-286.03 2122.69,-256 2122.69,-256 2122.69,-256 1637.07,-256 1637.07,-256"/>
<polygon fill="black" stroke="black" points="1637.07,-252.5 1627.07,-256 1637.07,-259.5 1637.07,-252.5"/>
</g>
<!-- InvoiceProcessorService -->
<g id="node30" class="node">
<title>InvoiceProcessorService</title>
<ellipse fill="#fdb462" stroke="black" cx="1965" cy="-321" rx="106.48" ry="18"/>
<text text-anchor="middle" x="1965" y="-316.8" font-family="Times,serif" font-size="14.00">InvoiceProcessorService</text>
</g>
<!-- InvoiceProcessorService&#45;&gt;EInvoiceModule -->
<g id="edge33" class="edge">
<title>InvoiceProcessorService&#45;&gt;EInvoiceModule</title>
<path fill="none" stroke="black" d="M1865.07,-314.73C1865.07,-298.79 1865.07,-258 1865.07,-258 1865.07,-258 1637.12,-258 1637.12,-258"/>
<polygon fill="black" stroke="black" points="1637.12,-254.5 1627.12,-258 1637.12,-261.5 1637.12,-254.5"/>
</g>
<!-- NotificationService -->
<g id="node31" class="node">
<title>NotificationService</title>
<ellipse fill="#fdb462" stroke="black" cx="1754" cy="-321" rx="86.81" ry="18"/>
<text text-anchor="middle" x="1754" y="-316.8" font-family="Times,serif" font-size="14.00">NotificationService</text>
</g>
<!-- NotificationService&#45;&gt;EInvoiceModule -->
<g id="edge34" class="edge">
<title>NotificationService&#45;&gt;EInvoiceModule</title>
<path fill="none" stroke="black" d="M1700.54,-306.78C1700.54,-289.04 1700.54,-261 1700.54,-261 1700.54,-261 1637.26,-261 1637.26,-261"/>
<polygon fill="black" stroke="black" points="1637.26,-257.5 1627.26,-261 1637.26,-264.5 1637.26,-257.5"/>
</g>
<!-- ExchangeRateService -->
<g id="node33" class="node">
<title>ExchangeRateService</title>
<ellipse fill="#fdb462" stroke="black" cx="456" cy="-245" rx="95.53" ry="18"/>
<text text-anchor="middle" x="456" y="-240.8" font-family="Times,serif" font-size="14.00">ExchangeRateService</text>
</g>
<!-- ExchangeRateService&#45;&gt;ExchangeRateModule -->
<g id="edge38" class="edge">
<title>ExchangeRateService&#45;&gt;ExchangeRateModule</title>
<path fill="none" stroke="black" d="M534.46,-234.5C534.46,-223.56 534.46,-208 534.46,-208 534.46,-208 922.9,-208 922.9,-208 922.9,-208 922.9,-207.02 922.9,-207.02"/>
<polygon fill="black" stroke="black" points="926.4,-208.21 922.9,-198.21 919.4,-208.21 926.4,-208.21"/>
</g>
<!-- DocumentService -->
<g id="node34" class="node">
<title>DocumentService</title>
<ellipse fill="#fdb462" stroke="black" cx="1305" cy="-104" rx="80.44" ry="18"/>
<text text-anchor="middle" x="1305" y="-99.8" font-family="Times,serif" font-size="14.00">DocumentService</text>
</g>
<!-- DocumentService&#45;&gt;InvoiceModule -->
<g id="edge39" class="edge">
<title>DocumentService&#45;&gt;InvoiceModule</title>
<path fill="none" stroke="black" d="M1360.72,-117.24C1360.72,-117.24 1360.72,-151.79 1360.72,-151.79"/>
<polygon fill="black" stroke="black" points="1357.22,-151.79 1360.72,-161.79 1364.22,-151.79 1357.22,-151.79"/>
</g>
<!-- HandlebarsService -->
<g id="node35" class="node">
<title>HandlebarsService</title>
<ellipse fill="#fdb462" stroke="black" cx="1123" cy="-104" rx="83.93" ry="18"/>
<text text-anchor="middle" x="1123" y="-99.8" font-family="Times,serif" font-size="14.00">HandlebarsService</text>
</g>
<!-- HandlebarsService&#45;&gt;InvoiceModule -->
<g id="edge40" class="edge">
<title>HandlebarsService&#45;&gt;InvoiceModule</title>
<path fill="none" stroke="black" d="M1200.59,-111C1200.59,-120.69 1200.59,-137 1200.59,-137 1200.59,-137 1336.23,-137 1336.23,-137 1336.23,-137 1336.23,-151.51 1336.23,-151.51"/>
<polygon fill="black" stroke="black" points="1332.73,-151.51 1336.23,-161.51 1339.73,-151.51 1332.73,-151.51"/>
</g>
<!-- UBLHelperService -->
<g id="node36" class="node">
<title>UBLHelperService</title>
<ellipse fill="#fdb462" stroke="black" cx="935" cy="-104" rx="85.65" ry="18"/>
<text text-anchor="middle" x="935" y="-99.8" font-family="Times,serif" font-size="14.00">UBLHelperService</text>
</g>
<!-- UBLHelperService&#45;&gt;InvoiceModule -->
<g id="edge41" class="edge">
<title>UBLHelperService&#45;&gt;InvoiceModule</title>
<path fill="none" stroke="black" d="M954.19,-121.67C954.19,-131.59 954.19,-142 954.19,-142 954.19,-142 1311.73,-142 1311.73,-142 1311.73,-142 1311.73,-151.89 1311.73,-151.89"/>
<polygon fill="black" stroke="black" points="1308.23,-151.89 1311.73,-161.89 1315.23,-151.89 1308.23,-151.89"/>
</g>
<!-- MinioProvider -->
<g id="node38" class="node">
<title>MinioProvider</title>
<ellipse fill="#fdb462" stroke="black" cx="280" cy="-104" rx="67.8" ry="18"/>
<text text-anchor="middle" x="280" y="-99.8" font-family="Times,serif" font-size="14.00">MinioProvider</text>
</g>
<!-- MinioProvider&#45;&gt;MinioModule -->
<g id="edge43" class="edge">
<title>MinioProvider&#45;&gt;MinioModule</title>
<path fill="none" stroke="black" d="M333.93,-114.98C333.93,-130.51 333.93,-157 333.93,-157 333.93,-157 1181.48,-157 1181.48,-157 1181.48,-157 1181.48,-157.49 1181.48,-157.49"/>
<polygon fill="black" stroke="black" points="1177.98,-151.88 1181.48,-161.88 1184.98,-151.88 1177.98,-151.88"/>
</g>
<!-- MinioService -->
<g id="node39" class="node">
<title>MinioService</title>
<ellipse fill="#fdb462" stroke="black" cx="429" cy="-104" rx="63.7" ry="18"/>
<text text-anchor="middle" x="429" y="-99.8" font-family="Times,serif" font-size="14.00">MinioService</text>
</g>
<!-- MinioService&#45;&gt;MinioModule -->
<g id="edge44" class="edge">
<title>MinioService&#45;&gt;MinioModule</title>
<path fill="none" stroke="black" d="M429,-122.15C429,-135.74 429,-152 429,-152 429,-152 1187.85,-152 1187.85,-152 1187.85,-152 1187.85,-152.98 1187.85,-152.98"/>
<polygon fill="black" stroke="black" points="1184.35,-151.79 1187.85,-161.79 1191.35,-151.79 1184.35,-151.79"/>
</g>
</g>
</svg>
